<svg width="583" height="128" viewBox="0 0 583 128" fill="none" xmlns="http://www.w3.org/2000/svg">
<path fill-rule="evenodd" clip-rule="evenodd" d="M543.813 10.252C545.52 3.41733 549.792 0 556.626 0C566.878 0 568.157 7.68533 573.281 8.96867C576.698 9.82373 579.687 8.54333 582.25 5.126C580.543 11.9592 576.27 15.3765 569.438 15.3765C559.186 15.3765 557.907 7.6912 552.783 6.40787C549.366 5.5528 546.377 6.8332 543.814 10.2505L543.813 10.252ZM531 25.6285C532.71 18.7939 536.978 15.3765 543.813 15.3765C554.065 15.3765 555.344 23.0619 560.468 24.3452C563.886 25.2003 566.875 23.9199 569.437 20.5025C567.73 27.3372 563.457 30.7545 556.624 30.7545C546.372 30.7545 545.093 23.0692 539.969 21.7859C536.551 20.9308 533.562 22.2112 531 25.6285Z" fill="url(#paint0_linear)"/>
<path d="M66.126 33.17V103.255C66.126 105.752 64.9133 107 62.488 107H53.286C51.36 107 49.969 106.001 49.113 104.004L24.182 51.681C23.54 50.2543 22.791 48.6493 21.935 46.866C21.079 45.0827 20.437 43.442 20.009 41.944H18.297C18.4397 43.5133 18.5467 45.1183 18.618 46.759C18.6893 48.3997 18.725 50.0403 18.725 51.681V107H9.309V36.915C9.309 34.4183 10.5573 33.17 13.054 33.17H21.935C23.861 33.17 25.252 34.1687 26.108 36.166L50.29 87.205C51.0747 88.703 51.895 90.415 52.751 92.341C53.6783 94.1957 54.5343 96.0503 55.319 97.905H57.138C56.924 94.053 56.817 90.308 56.817 86.67V33.17H66.126ZM137.931 33.17V78.752C137.931 85.8853 137.075 91.6277 135.363 95.979C133.651 100.33 130.869 103.505 127.017 105.502C123.165 107.428 117.994 108.391 111.502 108.391C104.868 108.391 99.554 107.428 95.5594 105.502C91.5647 103.505 88.6757 100.33 86.8924 95.979C85.109 91.6277 84.2174 85.8853 84.2174 78.752V33.17H93.6334V78.752C93.6334 84.0307 94.1684 88.2393 95.2384 91.378C96.3797 94.4453 98.2344 96.6567 100.802 98.012C103.37 99.296 106.794 99.938 111.074 99.938C115.354 99.938 118.743 99.296 121.239 98.012C123.807 96.6567 125.662 94.4453 126.803 91.378C127.945 88.2393 128.515 84.0307 128.515 78.752V33.17H137.931ZM160.938 33.17L177.844 65.056H180.947L197.853 33.17H208.018L188.544 68.801L209.409 107H199.137L180.733 72.332H178.058L159.654 107H149.382L170.14 68.801L150.773 33.17H160.938ZM234.599 33.063C239.878 33.063 245.228 33.0987 250.649 33.17C256.142 33.17 261.349 33.3483 266.271 33.705L265.843 41.088H236.204C231.924 41.088 229.784 43.442 229.784 48.15V64.2H261.67V71.797H229.784V92.02C229.784 94.5167 230.284 96.3357 231.282 97.477C232.352 98.6183 233.993 99.189 236.204 99.189H265.843L266.271 106.465C261.349 106.75 256.142 106.929 250.649 107C245.228 107.071 239.878 107.107 234.599 107.107C230.248 107.107 226.788 105.966 224.22 103.683C221.724 101.329 220.44 98.1903 220.368 94.267V45.903C220.44 41.9083 221.724 38.7697 224.22 36.487C226.788 34.2043 230.248 33.063 234.599 33.063Z" fill="black"/>
<path d="M369.694 33.17L354.714 104.218C354.5 105.003 354.072 105.68 353.43 106.251C352.788 106.75 351.968 107 350.969 107H340.269C339.342 107 338.522 106.75 337.808 106.251C337.166 105.68 336.774 104.967 336.631 104.111L325.075 48.578C324.79 47.1513 324.505 45.7603 324.219 44.405C323.934 42.9783 323.649 41.5873 323.363 40.232H321.116C320.831 41.5873 320.546 42.9783 320.26 44.405C320.046 45.8317 319.797 47.2227 319.511 48.578L308.062 104.111C307.563 106.037 306.315 107 304.317 107H293.51C292.583 107 291.763 106.75 291.049 106.251C290.407 105.68 290.015 105.003 289.872 104.218L274.892 33.17H284.843L296.399 90.736C296.685 92.0913 296.934 93.5537 297.148 95.123C297.362 96.621 297.612 98.1903 297.897 99.831H300.358C300.644 98.1903 300.929 96.621 301.214 95.123C301.5 93.625 301.785 92.1627 302.07 90.736L313.519 36.273C313.662 35.3457 314.054 34.5967 314.696 34.026C315.41 33.4553 316.23 33.17 317.157 33.17H327.429C328.357 33.17 329.141 33.4553 329.783 34.026C330.425 34.5967 330.853 35.3457 331.067 36.273L342.516 90.736C342.873 92.3053 343.158 93.839 343.372 95.337C343.658 96.835 343.872 98.333 344.014 99.831H346.689C346.903 98.333 347.117 96.835 347.331 95.337C347.545 93.7677 347.795 92.2697 348.08 90.843L359.743 33.17H369.694ZM391.762 33.17V107H382.346V33.17H391.762ZM467.167 33.17V103.255C467.167 105.752 465.954 107 463.529 107H454.327C452.401 107 451.01 106.001 450.154 104.004L425.223 51.681C424.581 50.2543 423.832 48.6493 422.976 46.866C422.12 45.0827 421.478 43.442 421.05 41.944H419.338C419.481 43.5133 419.588 45.1183 419.659 46.759C419.73 48.3997 419.766 50.0403 419.766 51.681V107H410.35V36.915C410.35 34.4183 411.598 33.17 414.095 33.17H422.976C424.902 33.17 426.293 34.1687 427.149 36.166L451.331 87.205C452.116 88.703 452.936 90.415 453.792 92.341C454.719 94.1957 455.575 96.0503 456.36 97.905H458.179C457.965 94.053 457.858 90.308 457.858 86.67V33.17H467.167ZM512.115 32.207C519.177 32.207 524.813 33.384 529.021 35.738C533.23 38.092 536.262 42.0153 538.116 47.508C539.971 53.0007 540.898 60.5263 540.898 70.085C540.898 79.5723 539.971 87.098 538.116 92.662C536.262 98.1547 533.23 102.078 529.021 104.432C524.813 106.786 519.177 107.963 512.115 107.963C507.051 107.963 502.343 107.856 497.991 107.642C493.711 107.499 489.645 107.285 485.793 107V33.17C489.645 32.8847 493.711 32.6707 497.991 32.528C502.343 32.314 507.051 32.207 512.115 32.207ZM512.115 40.339C508.834 40.339 505.802 40.3747 503.02 40.446C500.31 40.446 497.706 40.4817 495.209 40.553V99.51C497.635 99.5813 500.238 99.6527 503.02 99.724C505.874 99.724 508.905 99.724 512.115 99.724C516.823 99.724 520.568 98.8323 523.35 97.049C526.132 95.1943 528.094 92.127 529.235 87.847C530.448 83.4957 531.054 77.575 531.054 70.085C531.054 62.595 530.448 56.71 529.235 52.43C528.094 48.0787 526.132 44.9757 523.35 43.121C520.568 41.2663 516.823 40.339 512.115 40.339Z" fill="#884FFF"/>
<defs>
<linearGradient id="paint0_linear" x1="531" y1="-27.3313" x2="582.25" y2="58.0844" gradientUnits="userSpaceOnUse">
<stop stop-color="#4E25A6"/>
<stop offset="1" stop-color="#7360E8" stop-opacity="0.48"/>
</linearGradient>
</defs>
</svg>
